# xmcd
#
# Track frame offsets: 
#        150
#        16351
#        31237
#        45444
#        59552
#        75796
#        89735
#        102047
#        118821
#        132297
#        144427
#        158623
#        172060
#        189391
#        205626
#        217549
#        233135
#        250355
#
# Disc length: 3534 seconds
#
# Revision: 7
# Processed by: cddbd v1.5.1PL2 Copyright (c) Steve Scherf et al.
# Submitted via: ExactAudioCopy v0.95a5
#
DISCID=e50dcc12
DTITLE=Various Artist - Astor, Tom - Flieg, junger Adler
DYEAR=1993
DGENRE=
TTITLE0=Astor, Tom - Junger Adler '93 (Ein Lied für (m)einen Sohn)
TTITLE1=Astor, Tom - Renovier deine Seele
TTITLE2=Astor, Tom - Take it easy - nimm's leicht
TTITLE3=Astor, Tom and The Jordanaires - Ich bin kein Dichter, kein Poet
TTITLE4=Astor, Tom - Doch ich habe dich geliebt (Always On My Mind)
TTITLE5=Astor, Tom - Du bist da (wenn's drum geht)
TTITLE6=Astor, Tom and Claudia Jung - Wer liebe sucht (Stand By Your Man
TTITLE6=)
TTITLE7=Astor, Tom - Freundschaft
TTITLE8=Astor, Tom and Wolfgang Petry - Take Me Home Country Roads
TTITLE9=Astor, Tom - Hallo, guten morgen Deutschland
TTITLE10=Astor, Tom - International Airport (Frankfurt am Main)
TTITLE11=Astor, Tom and The Bellamy Brothers - Redneck Riviera
TTITLE12=Astor, Tom - Lucille
TTITLE13=Astor, Tom - Und ich seh' die Trucks vorüberzieh'n
TTITLE14=Astor, Tom - Freunde
TTITLE15=Astor, Tom and The Jordanaires - Bist du einsam heut' Nacht (Ar
TTITLE15=e You Lonesome Tonight)
TTITLE16=Astor, Tom - Sturm und Drang
TTITLE17=Astor, Tom - Geistertruck
EXTD=YEAR: 1993
EXTT0=
EXTT1=
EXTT2=
EXTT3=
EXTT4=
EXTT5=
EXTT6=
EXTT7=
EXTT8=
EXTT9=
EXTT10=
EXTT11=
EXTT12=
EXTT13=
EXTT14=
EXTT15=
EXTT16=
EXTT17=
PLAYORDER=
